<?xml version="1.0" encoding="us-ascii" standalone="no"?><svg xmlns="http://www.w3.org/2000/svg" xmlns:xlink="http://www.w3.org/1999/xlink" contentStyleType="text/css" height="420px" preserveAspectRatio="none" style="width:849px;height:420px;background:#FFFFFF;" version="1.1" viewBox="0 0 849 420" width="849px" zoomAndPan="magnify"><defs/><g><text fill="#000000" font-family="sans-serif" font-size="14" font-weight="bold" lengthAdjust="spacing" textLength="140" x="347.5" y="22.9951">Real-time insights</text><!--cluster CC--><g id="cluster_CC"><rect fill="none" height="262" rx="2.5" ry="2.5" style="stroke:#181818;stroke-width:1.0;" width="426" x="189" y="54.5869"/><path d="M368.7,54.5869 L368.7,63.8837 L358.7,73.8837 L189,73.8837 " fill="none" style="stroke:#181818;stroke-width:1.0;"/><path d="M204.315,65.8237 C204.315,66.2587 204.06,66.6487 203.565,66.7387 C202.695,66.8887 200.88,66.9787 199.35,66.9787 C197.82,66.9787 196.005,66.8737 195.135,66.7387 C194.64,66.6487 194.385,66.2587 194.385,65.8237 L194.385,62.9437 C194.385,62.5087 194.73,62.0887 195.135,62.0287 C195.39,61.9837 195.975,61.9387 196.455,61.9387 C196.635,61.9387 196.785,62.0737 196.785,62.2837 L196.785,64.2787 C197.67,64.2787 198.45,64.2337 199.35,64.2337 C200.25,64.2337 201.03,64.2787 201.93,64.2787 L201.93,62.2987 C201.93,62.0887 202.08,61.9537 202.26,61.9537 C202.74,61.9537 203.325,61.9987 203.58,62.0437 C203.985,62.1037 204.33,62.5237 204.33,62.9587 M199.35,57.1837 C195.285,57.1837 192,60.4687 192,64.5337 C192,68.5987 195.285,71.8837 199.35,71.8837 C203.415,71.8837 206.7,68.5987 206.7,64.5337 C206.7,60.4687 203.415,57.1837 199.35,57.1837 " fill="#181818" style="stroke:;stroke-width:0.0;stroke-dasharray:;"/><text fill="#000000" font-family="sans-serif" font-size="14" font-weight="bold" lengthAdjust="spacing" textLength="150" x="211.7" y="68.582">Couchbase Cluster</text></g><!--cluster WI--><g id="cluster_WI"><rect fill="none" height="179" rx="2.5" ry="2.5" style="stroke:#181818;stroke-width:1.0;stroke-dasharray:7.0,7.0;" width="161" x="221" y="105.5869"/><text fill="#000000" font-family="sans-serif" font-size="14" font-weight="bold" lengthAdjust="spacing" textLength="145" x="229" y="120.582">Workload Isolation</text></g><!--cluster SD--><g id="cluster_SD"><rect fill="none" height="179" rx="2.5" ry="2.5" style="stroke:#181818;stroke-width:1.0;stroke-dasharray:7.0,7.0;" width="128" x="455" y="105.5869"/><text fill="#000000" font-family="sans-serif" font-size="14" font-weight="bold" lengthAdjust="spacing" textLength="103" x="467.5" y="120.582">Shadow Data</text></g><!--entity D1--><g id="elem_D1"><path d="M266,158.4469 C266,148.4469 301,148.4469 301,148.4469 C301,148.4469 336,148.4469 336,158.4469 L336,230.7406 C336,240.7406 301,240.7406 301,240.7406 C301,240.7406 266,240.7406 266,230.7406 L266,158.4469 " fill="#F1F1F1" style="stroke:#181818;stroke-width:0.5;"/><path d="M266,158.4469 C266,168.4469 301,168.4469 301,168.4469 C301,168.4469 336,168.4469 336,158.4469 " fill="none" style="stroke:#181818;stroke-width:0.5;"/><path d="M305.965,181.0869 C305.965,181.5219 305.71,181.9119 305.215,182.0019 C304.345,182.1519 302.53,182.2419 301,182.2419 C299.47,182.2419 297.655,182.1369 296.785,182.0019 C296.29,181.9119 296.035,181.5219 296.035,181.0869 L296.035,178.2069 C296.035,177.7719 296.38,177.3519 296.785,177.2919 C297.04,177.2469 297.625,177.2019 298.105,177.2019 C298.285,177.2019 298.435,177.3369 298.435,177.5469 L298.435,179.5419 C299.32,179.5419 300.1,179.4969 301,179.4969 C301.9,179.4969 302.68,179.5419 303.58,179.5419 L303.58,177.5619 C303.58,177.3519 303.73,177.2169 303.91,177.2169 C304.39,177.2169 304.975,177.2619 305.23,177.3069 C305.635,177.3669 305.98,177.7869 305.98,178.2219 M301,172.4469 C296.935,172.4469 293.65,175.7319 293.65,179.7969 C293.65,183.8619 296.935,187.1469 301,187.1469 C305.065,187.1469 308.35,183.8619 308.35,179.7969 C308.35,175.7319 305.065,172.4469 301,172.4469 " fill="#181818" style="stroke:;stroke-width:0.0;stroke-dasharray:;"/><path d="M266,182.1469 C266,192.1469 301,192.1469 301,192.1469 C301,192.1469 336,192.1469 336,182.1469 " fill="none" style="stroke:#181818;stroke-width:1.0;stroke-dasharray:1.0,2.0;"/><text fill="#000000" font-family="sans-serif" font-size="14" lengthAdjust="spacing" textLength="32" x="285" y="204.142">Data</text><path d="M266,206.4437 C266,216.4437 301,216.4437 301,216.4437 C301,216.4437 336,216.4437 336,206.4437 " fill="none" style="stroke:#181818;stroke-width:1.0;stroke-dasharray:1.0,2.0;"/><text fill="#000000" font-family="sans-serif" font-size="14" lengthAdjust="spacing" textLength="50" x="276" y="228.4389">Service</text></g><!--entity D2--><g id="elem_D2"><path d="M479,158.4469 C479,148.4469 519,148.4469 519,148.4469 C519,148.4469 559,148.4469 559,158.4469 L559,230.7406 C559,240.7406 519,240.7406 519,240.7406 C519,240.7406 479,240.7406 479,230.7406 L479,158.4469 " fill="#F1F1F1" style="stroke:#181818;stroke-width:0.5;"/><path d="M479,158.4469 C479,168.4469 519,168.4469 519,168.4469 C519,168.4469 559,168.4469 559,158.4469 " fill="none" style="stroke:#181818;stroke-width:0.5;"/><path d="M523.965,181.0869 C523.965,181.5219 523.71,181.9119 523.215,182.0019 C522.345,182.1519 520.53,182.2419 519,182.2419 C517.47,182.2419 515.655,182.1369 514.785,182.0019 C514.29,181.9119 514.035,181.5219 514.035,181.0869 L514.035,178.2069 C514.035,177.7719 514.38,177.3519 514.785,177.2919 C515.04,177.2469 515.625,177.2019 516.105,177.2019 C516.285,177.2019 516.435,177.3369 516.435,177.5469 L516.435,179.5419 C517.32,179.5419 518.1,179.4969 519,179.4969 C519.9,179.4969 520.68,179.5419 521.58,179.5419 L521.58,177.5619 C521.58,177.3519 521.73,177.2169 521.91,177.2169 C522.39,177.2169 522.975,177.2619 523.23,177.3069 C523.635,177.3669 523.98,177.7869 523.98,178.2219 M519,172.4469 C514.935,172.4469 511.65,175.7319 511.65,179.7969 C511.65,183.8619 514.935,187.1469 519,187.1469 C523.065,187.1469 526.35,183.8619 526.35,179.7969 C526.35,175.7319 523.065,172.4469 519,172.4469 " fill="#181818" style="stroke:;stroke-width:0.0;stroke-dasharray:;"/><path d="M479,182.1469 C479,192.1469 519,192.1469 519,192.1469 C519,192.1469 559,192.1469 559,182.1469 " fill="none" style="stroke:#181818;stroke-width:1.0;stroke-dasharray:1.0,2.0;"/><text fill="#000000" font-family="sans-serif" font-size="14" lengthAdjust="spacing" textLength="60" x="489" y="204.142">Analytics</text><path d="M479,206.4437 C479,216.4437 519,216.4437 519,216.4437 C519,216.4437 559,216.4437 559,206.4437 " fill="none" style="stroke:#181818;stroke-width:1.0;stroke-dasharray:1.0,2.0;"/><text fill="#000000" font-family="sans-serif" font-size="14" lengthAdjust="spacing" textLength="50" x="494" y="228.4389">Service</text></g><!--entity A1--><g id="elem_A1"><rect fill="#F1F1F1" height="66.2969" rx="2.5" ry="2.5" style="stroke:#181818;stroke-width:0.5;" width="60" x="7" y="116.4369"/><text fill="#000000" font-family="sans-serif" font-size="14" lengthAdjust="spacing" textLength="40" x="17" y="132.432">App 1</text><line style="stroke:#181818;stroke-width:1.0;stroke-dasharray:1.0,2.0;" x1="8" x2="66" y1="135.7338" y2="135.7338"/><path d="M50,161.7338 L30,161.7338 L28,149.7338 L52,149.7338 " fill="#CCD6DD" style="stroke:;stroke-width:0.0;stroke-dasharray:;"/><path d="M51.984,166.7338 L29.984,166.7338 C28.89,166.7338 28,165.8428 28,164.7497 C28,163.6568 28.906,162.7338 30,162.7338 L30.007,162.7327 L30.015,162.7338 L50,162.7338 C50.489,162.7338 50.906,162.3798 50.986,161.8977 L52.986,149.8977 C53.035,149.6077 52.953,149.3118 52.762,149.0868 C52.573,148.8627 52.294,148.7338 52,148.7338 L28.817,148.7338 L27.777,142.5678 C27.698,142.0947 27.293,141.7758 26.835,141.7538 C26.819,141.7507 26.808,141.7338 26.792,141.7338 L22,141.7338 C21.448,141.7338 21,142.1818 21,142.7338 C21,143.2857 21.448,143.7338 22,143.7338 L25.946,143.7338 L28.849,160.9498 C27.207,161.4428 26,162.9498 26,164.7497 C26,166.9467 27.788,168.7338 29.984,168.7338 L51.984,168.7338 C52.537,168.7338 52.984,168.2867 52.984,167.7338 C52.984,167.1808 52.537,166.7338 51.984,166.7338 M49.82,156.7338 L46.513,156.7338 L46.786,154.7338 L50.152,154.7338 L49.82,156.7338 M44.494,156.7338 L41,156.7338 L41,154.7338 L44.767,154.7338 L44.494,156.7338 M39,156.7338 L35.506,156.7338 L35.233,154.7338 L39,154.7338 L39,156.7338 M33.488,156.7338 L30.181,156.7338 L29.848,154.7338 L33.215,154.7338 L33.488,156.7338 M30.847,160.7338 L30.514,158.7338 L33.761,158.7338 L34.034,160.7338 L30.847,160.7338 M36.053,160.7338 L35.78,158.7338 L39,158.7338 L39,160.7338 L36.053,160.7338 M41,160.7338 L41,158.7338 L44.22,158.7338 L43.947,160.7338 L41,160.7338 M45.967,160.7338 L46.24,158.7338 L49.487,158.7338 L49.154,160.7338 L45.967,160.7338 M50.819,150.7338 L50.486,152.7338 L47.06,152.7338 L47.333,150.7338 L50.819,150.7338 M45.314,150.7338 L45.041,152.7338 L41,152.7338 L41,150.7338 L45.314,150.7338 M39,150.7338 L39,152.7338 L34.959,152.7338 L34.686,150.7338 L39,150.7338 M32.667,150.7338 L32.94,152.7338 L29.513,152.7338 L29.18,150.7338 L32.667,150.7338 " fill="#66757F" style="stroke:;stroke-width:0.0;stroke-dasharray:;"/><ellipse cx="33" cy="170.7338" fill="#E1E8ED" rx="3" ry="3" style="stroke:#E1E8ED;stroke-width:0.5;"/><path d="M33,174.7338 C30.794,174.7338 29,172.9398 29,170.7338 C29,168.5278 30.794,166.7338 33,166.7338 C35.206,166.7338 37,168.5278 37,170.7338 C37,172.9398 35.206,174.7338 33,174.7338 M33,168.7338 C31.897,168.7338 31,169.6307 31,170.7338 C31,171.8368 31.897,172.7338 33,172.7338 C34.103,172.7338 35,171.8368 35,170.7338 C35,169.6307 34.103,168.7338 33,168.7338 " fill="#292F33" style="stroke:;stroke-width:0.0;stroke-dasharray:;"/><ellipse cx="47" cy="170.7338" fill="#E1E8ED" rx="3" ry="3" style="stroke:#E1E8ED;stroke-width:0.5;"/><path d="M47,174.7338 C44.794,174.7338 43,172.9398 43,170.7338 C43,168.5278 44.794,166.7338 47,166.7338 C49.206,166.7338 51,168.5278 51,170.7338 C51,172.9398 49.206,174.7338 47,174.7338 M47,168.7338 C45.897,168.7338 45,169.6307 45,170.7338 C45,171.8368 45.897,172.7338 47,172.7338 C48.103,172.7338 49,171.8368 49,170.7338 C49,169.6307 48.103,168.7338 47,168.7338 " fill="#292F33" style="stroke:;stroke-width:0.0;stroke-dasharray:;"/></g><!--entity A2--><g id="elem_A2"><rect fill="#F1F1F1" height="66.2969" rx="2.5" ry="2.5" style="stroke:#181818;stroke-width:0.5;" width="60" x="7" y="217.4369"/><text fill="#000000" font-family="sans-serif" font-size="14" lengthAdjust="spacing" textLength="40" x="17" y="233.432">App 2</text><line style="stroke:#181818;stroke-width:1.0;stroke-dasharray:1.0,2.0;" x1="8" x2="66" y1="236.7338" y2="236.7338"/><path d="M50,242.7338 L24,242.7338 C22.343,242.7338 21,244.0767 21,245.7338 L21,271.7338 C21,273.3907 22.343,274.7338 24,274.7338 L50,274.7338 C51.657,274.7338 53,273.3907 53,271.7338 L53,245.7338 C53,244.0767 51.657,242.7338 50,242.7338 " fill="#CCD6DD" style="stroke:;stroke-width:0.0;stroke-dasharray:;"/><path d="M50,241.7338 L24,241.7338 C21.791,241.7338 20,243.5247 20,245.7338 L20,271.7338 C20,273.9428 21.791,275.7338 24,275.7338 L50,275.7338 C52.209,275.7338 54,273.9428 54,271.7338 L54,245.7338 C54,243.5247 52.209,241.7338 50,241.7338 M50,243.7338 C51.103,243.7338 52,244.6307 52,245.7338 L52,249.7338 L46,249.7338 L46,243.7338 L50,243.7338 M46,259.7338 L52,259.7338 L52,265.7338 L46,265.7338 L46,259.7338 M46,257.7338 L46,251.7338 L52,251.7338 L52,257.7338 L46,257.7338 M44,243.7338 L44,249.7338 L38,249.7338 L38,243.7338 L44,243.7338 M38,251.7338 L44,251.7338 L44,257.7338 L38,257.7338 L38,251.7338 M38,259.7338 L44,259.7338 L44,265.7338 L38,265.7338 L38,259.7338 M36,243.7338 L36,249.7338 L30,249.7338 L30,243.7338 L36,243.7338 M30,251.7338 L36,251.7338 L36,257.7338 L30,257.7338 L30,251.7338 M30,259.7338 L36,259.7338 L36,265.7338 L30,265.7338 L30,259.7338 M22,245.7338 C22,244.6307 22.897,243.7338 24,243.7338 L28,243.7338 L28,249.7338 L22,249.7338 L22,245.7338 M22,251.7338 L28,251.7338 L28,257.7338 L22,257.7338 L22,251.7338 M22,259.7338 L28,259.7338 L28,265.7338 L22,265.7338 L22,259.7338 M24,273.7338 C22.897,273.7338 22,272.8368 22,271.7338 L22,267.7338 L28,267.7338 L28,273.7338 L24,273.7338 M30,273.7338 L30,267.7338 L36,267.7338 L36,273.7338 L30,273.7338 M38,273.7338 L38,267.7338 L44,267.7338 L44,273.7338 L38,273.7338 M50,273.7338 L46,273.7338 L46,267.7338 L52,267.7338 L52,271.7338 C52,272.8368 51.103,273.7338 50,273.7338 " fill="#E1E8ED" style="stroke:;stroke-width:0.0;stroke-dasharray:;"/><path d="M32,273.7338 L26,273.7338 L26,256.7338 C26,255.6298 26.896,254.7338 28,254.7338 L30,254.7338 C31.104,254.7338 32,255.6298 32,256.7338 L32,273.7338 " fill="#5C913B" style="stroke:;stroke-width:0.0;stroke-dasharray:;"/><path d="M48,273.7338 L42,273.7338 L42,249.7338 C42,248.6297 42.896,247.7338 44,247.7338 L46,247.7338 C47.104,247.7338 48,248.6297 48,249.7338 L48,273.7338 " fill="#3B94D9" style="stroke:;stroke-width:0.0;stroke-dasharray:;"/><path d="M40,273.7338 L34,273.7338 L34,263.7338 C34,262.6298 34.896,261.7338 36,261.7338 L38,261.7338 C39.104,261.7338 40,262.6298 40,263.7338 L40,273.7338 " fill="#DD2E44" style="stroke:;stroke-width:0.0;stroke-dasharray:;"/></g><!--entity DW--><g id="elem_DW"><rect fill="#F1F1F1" height="82.5938" rx="2.5" ry="2.5" style="stroke:#181818;stroke-width:0.5;" width="99" x="469.5" y="332.2969"/><text fill="#000000" font-family="sans-serif" font-size="14" lengthAdjust="spacing" textLength="32" x="503" y="348.292">Data</text><text fill="#000000" font-family="sans-serif" font-size="14" lengthAdjust="spacing" textLength="79" x="479.5" y="364.5889">Warehouse</text><line style="stroke:#181818;stroke-width:1.0;stroke-dasharray:1.0,2.0;" x1="470.5" x2="567.5" y1="367.8906" y2="367.8906"/><path d="M535,384.8906 C535,385.9946 534.104,386.8906 533,386.8906 L527,386.8906 C525.896,386.8906 525,385.9946 525,384.8906 L525,382.8906 C525,381.7866 525.896,380.8906 527,380.8906 L533,380.8906 C534.104,380.8906 535,381.7866 535,382.8906 L535,384.8906 M513,384.8906 C513,385.9946 512.104,386.8906 511,386.8906 L505,386.8906 C503.896,386.8906 503,385.9946 503,384.8906 L503,382.8906 C503,381.7866 503.896,380.8906 505,380.8906 L511,380.8906 C512.104,380.8906 513,381.7866 513,382.8906 L513,384.8906 " fill="#DAC8B1" style="stroke:;stroke-width:0.0;stroke-dasharray:;"/><path d="M537,405.8906 C537,406.9946 536.104,407.8906 535,407.8906 L503,407.8906 C501.896,407.8906 501,406.9946 501,405.8906 L501,384.8906 C501,383.7866 501.896,382.8906 503,382.8906 L535,382.8906 C536.104,382.8906 537,383.7866 537,384.8906 L537,405.8906 " fill="#F1DCC1" style="stroke:;stroke-width:0.0;stroke-dasharray:;"/><path d="M523,380.8906 L523,378.8906 C523,378.1526 522.596,377.5146 522,377.1676 L522,376.8906 C522,375.7866 521.104,374.8906 520,374.8906 L518,374.8906 C516.896,374.8906 516,375.7866 516,376.8906 L516,377.1676 C515.405,377.5146 515,378.1526 515,378.8906 L515,380.8906 L514,380.8906 L514,407.8906 L524,407.8906 L524,380.8906 L523,380.8906 " fill="#DAC8B1" style="stroke:;stroke-width:0.0;stroke-dasharray:;"/><path d="M515,378.8906 L517,378.8906 L517,380.8906 L515,380.8906 M521,378.8906 L523,378.8906 L523,380.8906 L521,380.8906 M518,378.8906 L520,378.8906 L520,380.8906 L518,380.8906 " fill="#55ACEE" style="stroke:;stroke-width:0.0;stroke-dasharray:;"/><path d="M516,386.8906 L518,386.8906 L518,400.8906 L516,400.8906 M520,386.8906 L522,386.8906 L522,400.8906 L520,400.8906 " fill="#3B88C3" style="stroke:;stroke-width:0.0;stroke-dasharray:;"/><path d="M525,388.8906 L527,388.8906 L527,400.8906 L525,400.8906 M529,388.8906 L531,388.8906 L531,400.8906 L529,400.8906 M533,388.8906 L535,388.8906 L535,400.8906 L533,400.8906 M503,388.8906 L505,388.8906 L505,400.8906 L503,400.8906 M507,388.8906 L509,388.8906 L509,400.8906 L507,400.8906 M511,388.8906 L513,388.8906 L513,400.8906 L511,400.8906 M503,401.8906 L505,401.8906 L505,403.8906 L503,403.8906 M507,401.8906 L509,401.8906 L509,403.8906 L507,403.8906 M511,401.8906 L513,401.8906 L513,403.8906 L511,403.8906 " fill="#55ACEE" style="stroke:;stroke-width:0.0;stroke-dasharray:;"/><path d="M516,401.8906 L518,401.8906 L518,403.8906 L516,403.8906 M520,401.8906 L522,401.8906 L522,403.8906 L520,403.8906 " fill="#3B88C3" style="stroke:;stroke-width:0.0;stroke-dasharray:;"/><path d="M525,401.8906 L527,401.8906 L527,403.8906 L525,403.8906 M529,401.8906 L531,401.8906 L531,403.8906 L529,403.8906 M533,401.8906 L535,401.8906 L535,403.8906 L533,403.8906 " fill="#55ACEE" style="stroke:;stroke-width:0.0;stroke-dasharray:;"/><path d="M503,404.8906 L505,404.8906 L505,407.8906 L503,407.8906 M507,404.8906 L509,404.8906 L509,407.8906 L507,407.8906 M511,404.8906 L513,404.8906 L513,407.8906 L511,407.8906 M516,404.8906 L518,404.8906 L518,407.8906 L516,407.8906 M520,404.8906 L522,404.8906 L522,407.8906 L520,407.8906 M525,404.8906 L527,404.8906 L527,407.8906 L525,407.8906 M529,404.8906 L531,404.8906 L531,407.8906 L529,407.8906 M533,404.8906 L535,404.8906 L535,407.8906 L533,407.8906 " fill="#66757F" style="stroke:;stroke-width:0.0;stroke-dasharray:;"/></g><!--entity BI--><g id="elem_BI"><rect fill="#F1F1F1" height="82.5938" rx="2.5" ry="2.5" style="stroke:#181818;stroke-width:0.5;" width="99" x="738" y="44.2969"/><text fill="#000000" font-family="sans-serif" font-size="14" lengthAdjust="spacing" textLength="64" x="755.5" y="60.292">Business</text><text fill="#000000" font-family="sans-serif" font-size="14" lengthAdjust="spacing" textLength="79" x="748" y="76.5889">Intelligence</text><line style="stroke:#181818;stroke-width:1.0;stroke-dasharray:1.0,2.0;" x1="739" x2="836" y1="79.8906" y2="79.8906"/><path d="M805.542,115.8906 C805.542,118.0996 803.751,119.8906 801.542,119.8906 L773.542,119.8906 C771.333,119.8906 769.542,118.0996 769.542,115.8906 L769.542,87.8906 C769.542,85.6816 771.333,83.8906 773.542,83.8906 L801.542,83.8906 C803.751,83.8906 805.542,85.6816 805.542,87.8906 L805.542,115.8906 " fill="#77B255" style="stroke:;stroke-width:0.0;stroke-dasharray:;"/><path d="M779.396,98.7656 L775.292,98.7656 C774.604,98.7656 774.065,98.4386 774.065,97.7806 C774.065,97.1196 774.604,96.7906 775.292,96.7906 L778.168,96.7906 L773.376,89.3916 C773.078,88.9426 772.927,88.6156 772.927,88.1966 C772.927,87.6256 773.497,87.2066 773.976,87.2066 C774.456,87.2066 774.934,87.4166 775.354,88.0456 L780.714,96.1036 L786.076,88.0456 C786.495,87.4166 786.973,87.2066 787.454,87.2066 C787.932,87.2066 788.5,87.6266 788.5,88.1966 C788.5,88.6156 788.352,88.9426 788.052,89.3916 L783.26,96.7906 L786.135,96.7906 C786.824,96.7906 787.364,97.1196 787.364,97.7806 C787.364,98.4386 786.825,98.7656 786.135,98.7656 L782.033,98.7656 L782.033,100.8916 L786.135,100.8916 C786.824,100.8916 787.364,101.2236 787.364,101.8816 C787.364,102.5396 786.825,102.8686 786.135,102.8686 L782.033,102.8686 L782.033,107.4796 C782.033,108.3476 781.494,108.8896 780.714,108.8896 C779.936,108.8896 779.397,108.3476 779.397,107.4796 L779.397,102.8686 L775.292,102.8686 C774.604,102.8686 774.065,102.5396 774.065,101.8816 C774.065,101.2236 774.604,100.8916 775.292,100.8916 L779.397,100.8916 L779.397,98.7656 " fill="#FFFFFF" style="stroke:;stroke-width:0.0;stroke-dasharray:;"/><path d="M773.502,117.8906 C772.822,117.8906 772.16,117.5446 771.785,116.9196 C771.217,115.9726 771.524,114.7436 772.471,114.1756 L777.471,111.1756 C777.972,110.8756 778.579,110.8096 779.132,110.9926 L783.809,112.5526 L786.938,108.6416 C787.488,107.9536 788.421,107.7086 789.243,108.0336 L792.273,109.2466 L794.602,102.2586 C794.701,101.9636 794.866,101.6966 795.085,101.4766 L800.085,96.4766 C800.866,95.6956 802.132,95.6956 802.913,96.4766 C803.694,97.2576 803.694,98.5236 802.913,99.3046 L798.247,103.9706 L795.396,112.5236 C795.222,113.0456 794.839,113.4736 794.34,113.7056 C793.841,113.9356 793.268,113.9516 792.755,113.7486 L789.133,112.2996 L786.06,116.1406 C785.537,116.7946 784.661,117.0526 783.866,116.7886 L778.74,115.0786 L774.529,117.6046 C774.207,117.7986 773.852,117.8906 773.502,117.8906 " fill="#FFFFFF" style="stroke:;stroke-width:0.0;stroke-dasharray:;"/></g><!--entity DS--><g id="elem_DS"><rect fill="#F1F1F1" height="66.2969" rx="2.5" ry="2.5" style="stroke:#181818;stroke-width:0.5;" width="111" x="732" y="161.4369"/><text fill="#000000" font-family="sans-serif" font-size="14" lengthAdjust="spacing" textLength="91" x="742" y="177.432">Data Science</text><line style="stroke:#181818;stroke-width:1.0;stroke-dasharray:1.0,2.0;" x1="733" x2="842" y1="180.7338" y2="180.7338"/><path d="M805.5,216.7338 C805.5,218.9428 803.709,220.7338 801.5,220.7338 L773.5,220.7338 C771.291,220.7338 769.5,218.9428 769.5,216.7338 L769.5,188.7338 C769.5,186.5247 771.291,184.7338 773.5,184.7338 L801.5,184.7338 C803.709,184.7338 805.5,186.5247 805.5,188.7338 L805.5,216.7338 " fill="#9266CC" style="stroke:;stroke-width:0.0;stroke-dasharray:;"/><path d="M795.964,202.7338 C798.852,200.2048 800.553,197.6158 799.558,195.8668 C799.058,194.9898 798.031,194.5448 796.506,194.5448 C795.208,194.5448 793.545,194.8908 791.711,195.4987 C790.947,191.6777 789.533,188.8588 787.5,188.8588 C785.467,188.8588 784.053,191.6777 783.289,195.4987 C781.455,194.8908 779.792,194.5448 778.494,194.5448 C776.97,194.5448 775.942,194.9898 775.442,195.8678 C774.447,197.6158 776.148,200.2048 779.036,202.7338 C776.148,205.2627 774.447,207.8517 775.442,209.6007 C775.942,210.4778 776.969,210.9227 778.494,210.9227 C779.792,210.9227 781.455,210.5767 783.289,209.9688 C784.053,213.7898 785.467,216.6088 787.5,216.6088 C789.533,216.6088 790.947,213.7898 791.711,209.9688 C793.545,210.5767 795.208,210.9227 796.506,210.9227 C798.03,210.9227 799.058,210.4778 799.558,209.5997 C800.553,207.8517 798.851,205.2627 795.964,202.7338 M796.506,196.2948 C797.308,196.2948 797.88,196.4587 798.036,196.7327 C798.383,197.3418 797.312,199.2588 794.588,201.6067 C793.861,201.0427 793.089,200.4887 792.281,199.9548 C792.219,199.0247 792.125,198.1137 792.002,197.2348 C793.748,196.6328 795.311,196.2948 796.506,196.2948 M789.047,205.4488 C788.53,205.7428 788.014,206.0218 787.5,206.2867 C786.986,206.0218 786.47,205.7437 785.953,205.4488 C785.412,205.1408 784.906,204.8327 784.417,204.5258 C784.393,203.9488 784.375,203.3567 784.375,202.7338 C784.375,202.1108 784.392,201.5187 784.417,200.9417 C784.907,200.6348 785.412,200.3267 785.953,200.0187 C786.47,199.7247 786.986,199.4457 787.5,199.1808 C788.014,199.4457 788.53,199.7238 789.047,200.0187 C789.588,200.3267 790.094,200.6348 790.583,200.9417 C790.607,201.5187 790.625,202.1108 790.625,202.7338 C790.625,203.3567 790.608,203.9488 790.583,204.5258 C790.094,204.8327 789.588,205.1408 789.047,205.4488 M790.436,206.6607 C790.404,206.9848 790.366,207.2938 790.326,207.5997 C790.039,207.4817 789.746,207.3488 789.454,207.2178 C789.607,207.1338 789.759,207.0568 789.912,206.9697 C790.089,206.8697 790.261,206.7638 790.436,206.6607 M785.546,207.2178 C785.254,207.3478 784.96,207.4808 784.674,207.5997 C784.635,207.2938 784.597,206.9848 784.564,206.6617 C784.739,206.7648 784.912,206.8708 785.088,206.9707 C785.24,207.0568 785.393,207.1338 785.546,207.2178 M782.634,203.3418 C782.346,203.1367 782.073,202.9347 781.808,202.7338 C782.073,202.5328 782.346,202.3308 782.634,202.1257 C782.631,202.3287 782.625,202.5307 782.625,202.7338 C782.625,202.9368 782.631,203.1388 782.634,203.3418 M784.564,198.8068 C784.596,198.4827 784.634,198.1737 784.674,197.8687 C784.961,197.9867 785.254,198.1197 785.546,198.2507 C785.393,198.3347 785.241,198.4117 785.088,198.4987 C784.911,198.5978 784.739,198.7037 784.564,198.8068 M789.454,198.2497 C789.746,198.1197 790.04,197.9867 790.326,197.8678 C790.365,198.1737 790.403,198.4827 790.436,198.8068 C790.261,198.7037 790.088,198.5978 789.912,198.4978 C789.76,198.4107 789.607,198.3337 789.454,198.2497 M792.366,202.1257 C792.654,202.3308 792.927,202.5328 793.192,202.7338 C792.927,202.9347 792.654,203.1367 792.366,203.3418 C792.369,203.1388 792.375,202.9368 792.375,202.7338 C792.375,202.5307 792.369,202.3287 792.366,202.1257 M787.5,190.6088 C788.206,190.6088 789.355,192.5167 790.046,196.1028 C789.216,196.4328 788.363,196.8157 787.5,197.2348 C786.637,196.8147 785.784,196.4318 784.954,196.1028 C785.645,192.5167 786.794,190.6088 787.5,190.6088 M776.964,196.7338 C777.12,196.4587 777.693,196.2948 778.494,196.2948 C779.688,196.2948 781.252,196.6338 782.998,197.2348 C782.875,198.1137 782.78,199.0247 782.719,199.9548 C781.911,200.4887 781.139,201.0427 780.412,201.6067 C777.688,199.2588 776.617,197.3418 776.964,196.7338 M778.494,209.1727 C777.692,209.1727 777.12,209.0088 776.964,208.7348 C776.617,208.1257 777.688,206.2087 780.412,203.8608 C781.139,204.4248 781.911,204.9788 782.719,205.5127 C782.781,206.4428 782.875,207.3538 782.998,208.2327 C781.252,208.8347 779.689,209.1727 778.494,209.1727 M787.5,214.8588 C786.794,214.8588 785.645,212.9507 784.954,209.3648 C785.784,209.0347 786.637,208.6518 787.5,208.2327 C788.363,208.6528 789.216,209.0357 790.046,209.3648 C789.355,212.9507 788.206,214.8588 787.5,214.8588 M798.036,208.7338 C797.88,209.0088 797.307,209.1727 796.506,209.1727 C795.312,209.1727 793.748,208.8337 792.002,208.2327 C792.125,207.3538 792.22,206.4428 792.281,205.5127 C793.089,204.9788 793.861,204.4248 794.588,203.8608 C797.312,206.2087 798.383,208.1257 798.036,208.7338 " fill="#FFFFFF" style="stroke:;stroke-width:0.0;stroke-dasharray:;"/><path d="M787.5,201.3198 C786.719,201.3198 786.086,201.9527 786.086,202.7338 C786.086,203.5148 786.719,204.1477 787.5,204.1477 C788.281,204.1477 788.914,203.5148 788.914,202.7338 C788.914,201.9527 788.281,201.3198 787.5,201.3198 " fill="#FFFFFF" style="stroke:;stroke-width:0.0;stroke-dasharray:;"/></g><!--entity DL--><g id="elem_DL"><rect fill="#F1F1F1" height="66.2969" rx="2.5" ry="2.5" style="stroke:#181818;stroke-width:0.5;" width="88" x="743.5" y="262.4369"/><text fill="#000000" font-family="sans-serif" font-size="14" lengthAdjust="spacing" textLength="68" x="753.5" y="278.432">Data Lake</text><line style="stroke:#181818;stroke-width:1.0;stroke-dasharray:1.0,2.0;" x1="744.5" x2="830.5" y1="281.7338" y2="281.7338"/><path d="M797.5,317.7338 C797.5,319.9428 795.709,321.7338 793.5,321.7338 L773.5,321.7338 C771.291,321.7338 769.5,319.8588 769.5,313.7338 L769.5,289.7338 C769.5,287.5248 771.291,285.7338 773.5,285.7338 L793.5,285.7338 C795.709,285.7338 797.5,287.5248 797.5,289.7338 L797.5,317.7338 " fill="#CCD6DD" style="stroke:;stroke-width:0.0;stroke-dasharray:;"/><path d="M800.5,321.7338 L773.5,321.7338 C777.5,321.7338 777.5,313.7338 777.5,313.7338 C777.5,311.5248 779.291,309.7338 781.5,309.7338 L801.5,309.7338 C803.709,309.7338 805.5,311.7338 805.5,313.7338 C805.5,313.7338 805.75,321.7338 800.5,321.7338 " fill="#E1E8ED" style="stroke:;stroke-width:0.0;stroke-dasharray:;"/><path d="M793.5,292.7338 C793.5,293.2858 793.053,293.7338 792.5,293.7338 L774.5,293.7338 C773.948,293.7338 773.5,293.2858 773.5,292.7338 C773.5,292.1817 773.948,291.7338 774.5,291.7338 L792.5,291.7338 C793.053,291.7338 793.5,292.1817 793.5,292.7338 M793.5,296.7338 C793.5,297.2858 793.053,297.7338 792.5,297.7338 L774.5,297.7338 C773.948,297.7338 773.5,297.2858 773.5,296.7338 C773.5,296.1817 773.948,295.7338 774.5,295.7338 L792.5,295.7338 C793.053,295.7338 793.5,296.1817 793.5,296.7338 M793.5,300.7338 C793.5,301.2858 793.053,301.7338 792.5,301.7338 L774.5,301.7338 C773.948,301.7338 773.5,301.2858 773.5,300.7338 C773.5,300.1817 773.948,299.7338 774.5,299.7338 L792.5,299.7338 C793.053,299.7338 793.5,300.1817 793.5,300.7338 M793.5,304.7338 C793.5,305.2868 793.053,305.7338 792.5,305.7338 L774.5,305.7338 C773.948,305.7338 773.5,305.2868 773.5,304.7338 C773.5,304.1808 773.948,303.7338 774.5,303.7338 L792.5,303.7338 C793.053,303.7338 793.5,304.1808 793.5,304.7338 " fill="#99AAB5" style="stroke:;stroke-width:0.0;stroke-dasharray:;"/></g><!--link D1 to D2--><g id="link_D1_D2"><path d="M336.23,194.5869 C375.01,194.5869 432.1,194.5869 472.82,194.5869 " fill="none" id="D1-to-D2" style="stroke:#808080;stroke-width:4.0;"/><polygon fill="#808080" points="478.82,194.5869,469.82,190.5869,473.82,194.5869,469.82,198.5869,478.82,194.5869" style="stroke:#808080;stroke-width:4.0;"/></g><!--link A1 to D1--><g id="link_A1_D1"><path d="M73.2032,155.6336 C121.9432,164.0136 207.6266,178.721 259.6066,187.651 " fill="none" id="A1-D1" style="stroke:#181818;stroke-width:1.0;"/><polygon fill="#181818" points="67.29,154.6169,75.4821,160.0841,72.2177,155.4641,76.8376,152.1997,67.29,154.6169" style="stroke:#181818;stroke-width:1.0;"/><polygon fill="#181818" points="265.52,188.6669,257.3272,183.2008,260.5922,187.8203,255.9727,191.0853,265.52,188.6669" style="stroke:#181818;stroke-width:1.0;"/></g><!--link A2 to D1--><g id="link_A2_D1"><path d="M73.1574,243.0725 C121.8974,232.6525 207.6725,214.321 259.6525,203.211 " fill="none" id="A2-D1" style="stroke:#181818;stroke-width:1.0;"/><polygon fill="#181818" points="67.29,244.3269,76.9274,246.3569,72.1795,243.2816,75.2549,238.5337,67.29,244.3269" style="stroke:#181818;stroke-width:1.0;"/><polygon fill="#181818" points="265.52,201.9569,255.8827,199.9264,260.6304,203.002,257.5548,207.7497,265.52,201.9569" style="stroke:#181818;stroke-width:1.0;"/><text fill="#000000" font-family="sans-serif" font-size="13" lengthAdjust="spacing" textLength="74" x="98" y="203.6538">Operational</text><text fill="#000000" font-family="sans-serif" font-size="13" lengthAdjust="spacing" textLength="31" x="119.5" y="218.7866">Data</text></g><!--link D2 to BI--><g id="link_D2_BI"><path d="M564.8736,176.2359 C612.3636,156.8159 681.1368,128.6888 732.4168,107.7088 " fill="none" id="D2-BI" style="stroke:#181818;stroke-width:1.0;"/><polygon fill="#181818" points="559.32,178.5069,569.1644,178.8027,563.948,176.6144,566.1364,171.3979,559.32,178.5069" style="stroke:#181818;stroke-width:1.0;"/><polygon fill="#181818" points="737.97,105.4369,728.1255,105.1427,733.3423,107.3302,731.1548,112.547,737.97,105.4369" style="stroke:#181818;stroke-width:1.0;"/><text fill="#000000" font-family="sans-serif" font-size="13" lengthAdjust="spacing" textLength="69" x="632" y="102.6538">SQL++ for</text><text fill="#000000" font-family="sans-serif" font-size="13" lengthAdjust="spacing" textLength="57" x="638" y="117.7866">Analytics</text></g><!--link D2 to DS--><g id="link_D2_DS"><path d="M565.32,194.5869 C610.93,194.5869 674.41,194.5869 725.74,194.5869 " fill="none" id="D2-DS" style="stroke:#181818;stroke-width:1.0;"/><polygon fill="#181818" points="559.32,194.5869,568.32,198.5869,564.32,194.5869,568.32,190.5869,559.32,194.5869" style="stroke:#181818;stroke-width:1.0;"/><polygon fill="#181818" points="731.74,194.5869,722.74,190.5869,726.74,194.5869,722.74,198.5869,731.74,194.5869" style="stroke:#181818;stroke-width:1.0;"/></g><!--link D2 to DL--><g id="link_D2_DL"><path d="M564.9308,211.6228 C614.0208,230.2228 686.4694,257.6805 737.4194,276.9905 " fill="none" id="D2-DL" style="stroke:#181818;stroke-width:1.0;"/><polygon fill="#181818" points="559.32,209.4969,566.3189,216.4262,563.9956,211.2685,569.1534,208.9452,559.32,209.4969" style="stroke:#181818;stroke-width:1.0;"/><polygon fill="#181818" points="743.03,279.1169,736.0318,272.1869,738.3545,277.3449,733.1966,279.6677,743.03,279.1169" style="stroke:#181818;stroke-width:1.0;"/><text fill="#000000" font-family="sans-serif" font-size="13" lengthAdjust="spacing" textLength="50" x="641.5" y="220.6538">Analyze</text><text fill="#000000" font-family="sans-serif" font-size="13" lengthAdjust="spacing" textLength="65" x="634" y="235.7866">Data Lake</text></g><!--link WI to DW--><g id="link_WI_DW"><path d="M319.8843,284.6184 C320.0506,284.6931 320.2178,284.7682 320.3861,284.8437 C320.7225,284.9948 321.0628,285.1476 321.4069,285.3022 C332.4181,290.2475 347.3275,296.9431 364.0425,304.4494 C397.4725,319.4619 432.6514,335.2592 463.7864,349.2392 " fill="none" id="WI-to-DW" style="stroke:#181818;stroke-width:1.0;"/><polygon fill="#181818" points="469.26,351.6969,462.6881,344.3613,464.6987,349.6488,459.4112,351.6594,469.26,351.6969" style="stroke:#181818;stroke-width:1.0;"/></g><!--link SD to DW--><g id="link_SD_DW"><path d="M519,284.7435 C519,285.0293 519,285.3151 519,285.601 C519,286.1726 519,286.7443 519,287.3159 C519,288.4592 519,289.6026 519,290.7459 C519,295.3194 519,299.8931 519,304.4669 C519,313.6144 519,316.7619 519,325.9069 " fill="none" id="SD-to-DW" style="stroke:#181818;stroke-width:1.0;"/><polygon fill="#181818" points="519,331.9069,523,322.9069,519,326.9069,515,322.9069,519,331.9069" style="stroke:#181818;stroke-width:1.0;"/></g><!--SRC=[bLDjQzim4FwkNt5aWtsOhVajhqi2RVAbq36sb0MsbQ3QIYogMCPIshMZ_tsdi_iokeuDZEwiktlkkHVPkb5Emi8Syl92M0bJUxM3QrMuSjORZtfGIhKhNQjVANbzR7xCUX54C1xXrvkpQIrSoG2WcFNsC4fu7FI7V00vH472nn36V1ZqUH_2VZ3WCGe-2b34GpuEOdGCan76a1P7F0aYl4bu6eGH7tR6aAnfUpdmIFYJaFIGNo0TyOmoXZubHVSnkhDx1XYOGfyFMeGHSY0bfeI9FoamGSuf0cP350j8X-X8UfQYX6pipnm661HJB9gmabP17Xcc8nun4eezdPHGIKafsH0ByjwUWwUG8Bi8lVk1hwbjqYryyBaYf934t2lOJ5HGPFuOUYUou1WoElrLG4DfhIZH5K-A8slKOdxjmJkSspkSz9mnBRSEd876pnaArSZSALCnvfJJSWAVfT2XKti9ghBUnx8tS5PAoCs-rXANvwWI-iQft8BCZRsnJkuPivUggaKZzb38hJXeToP_k2EjTjLULWvoF6I3ISnEkb8sy1DNA1TD0KSnVFFh14Tr3J5fd9EOMdKh9qasdqviQUfQLRiDXhZ976j1qnozpXzWaYSmoGim5wBPvEKpY3l626Ev9eobS0B5MZIoD0ShMGVr1CXijogNZoZdR8kbI-XDNpyyhPys5rhE8Xxtx-PFNjn27x1bJG-4XSM26k5d8AgTHe2rQIwr4GMSMAE5dmmvha_WbLQLv8MmfIme2fyWCYNCvNqJaUKB33fprvI7Ad-xMydc2kkYFz_Pkz-vhKfHc6kA95AhvTz99VzDwc6r_eKP5Xr-UxLhnCrxLwhyifBMphBpS8wP_KoVxzhnISVe-62LTwUV4rnDZPiggox1yyNvmz9qaCjL1-cx0gjS_GL5EBFVs9lzXT5_nZfzYdKgBby2giLERgwLApVveT7FbXcVr3JqROWPFejEXGbyh6L3AoNqzuhcpvQT7JipWTMdqxTlOMkQxzNZ8Euzbgj7zHIToUDMja0jMOPRwirhXfj1oYy0]--></g></svg>